<?xml version="1.0" encoding="UTF-8"?>
<svg width="96px" height="96px" viewBox="0 0 96 96" version="1.1" xmlns="http://www.w3.org/2000/svg" xmlns:xlink="http://www.w3.org/1999/xlink">
    <title>ic_heart_default_96x96</title>
    <g id="ic_heart_default_96x96" stroke="none" stroke-width="1" fill="none" fill-rule="evenodd">
        <path d="M70.2964681,10 C63.9551523,10 57.9953946,12.5618135 53.5144476,17.213663 L48.0303659,22.9072161 C47.7432888,23.2053455 47.2567112,23.2053455 46.9696341,22.9072161 L41.4855524,17.213663 C37.0047871,12.5618135 31.0448477,10 24.7035319,10 C18.3625795,10 12.4019134,12.5619976 7.92132975,17.213663 C-1.30710992,26.7944992 -1.30710992,42.3835907 7.92132975,51.9642427 L44.159367,89.5856297 C45.9516004,91.4642683 49.0374979,91.4786316 50.8408147,89.5856297 L75.0230752,64.9530329 C75.5488987,64.4072296 75.5383605,63.532729 75,63 C74.4612761,62.4670868 73.5985912,62.4777672 73.0729493,63.0235705 L48.8906888,87.6559831 C48.1342951,88.4483554 46.8635246,88.4461457 46.1094928,87.6559831 L9.87163731,50.0345961 C1.66813569,41.517929 1.66813569,27.6599767 9.87163731,19.1431255 C13.8353004,15.0282402 19.1028024,12.7621623 24.7035319,12.7621623 C30.3044431,12.7621623 35.5717634,15.0284244 39.5354265,19.1431255 L45.0195082,24.8366785 C46.3522366,26.2334119 48.6423126,26.2415143 49.9806735,24.8366785 L55.4647552,19.1431255 C59.4282366,15.0282402 64.6957386,12.7621623 70.2966498,12.7621623 C75.897561,12.7621623 81.1648813,15.0284244 85.1285444,19.1431255 C93.332046,27.6599767 93.332046,41.517929 85.1285444,50.0345961 L77.9356269,57.5021939 C77.4098034,58.0479972 77.4203417,58.9224978 77.9587021,59.4552268 C78.4972443,59.9879559 79.3597476,59.9770913 79.8857528,59.4316564 L87.0786703,51.9640585 C96.3071099,42.3835907 96.3071099,26.7944992 87.0786703,17.213663 C82.5977233,12.5618135 76.6377839,10 70.2964681,10 Z" id="Path-Copy" stroke="#FF7060" stroke-width="0.98" fill="#FF7060" fill-rule="nonzero"></path>
        <path d="M50.3409091,35 C51.8635455,35 53.1022727,36.2843939 53.1022727,37.8636364 L53.1022727,37.8636364 L53.1022727,44.2272727 L59.2386364,44.2272727 C60.7612727,44.2272727 62,45.5118788 62,47.0909091 L62,47.0909091 L62,50.9090909 C62,52.4881212 60.7612727,53.7727273 59.2386364,53.7727273 L59.2386364,53.7727273 L53.1022727,53.7727273 L53.1022727,60.1363636 C53.1022727,61.7153939 51.8635455,63 50.3409091,63 L50.3409091,63 L46.6590909,63 C45.1364545,63 43.8977273,61.7153939 43.8977273,60.1363636 L43.8977273,60.1363636 L43.8977273,53.7727273 L37.7613636,53.7727273 C36.2387273,53.7727273 35,52.4881212 35,50.9090909 L35,50.9090909 L35,47.0909091 C35,45.5118788 36.2387273,44.2272727 37.7613636,44.2272727 L37.7613636,44.2272727 L43.8977273,44.2272727 L43.8977273,37.8636364 C43.8977273,36.2846061 45.1364545,35 46.6590909,35 L46.6590909,35 Z M50.0598739,37.8965517 L46.9401261,37.8965517 L46.9401261,44.7687627 C46.9401261,45.9745233 45.9605252,46.9553753 44.7563025,46.9553753 L44.7563025,46.9553753 L37.8928571,46.9553753 L37.8928571,50.0791075 L44.7563025,50.0791075 C45.9605252,50.0791075 46.9401261,51.0599594 46.9401261,52.2657201 L46.9401261,52.2657201 L46.9401261,59.137931 L50.0598739,59.137931 L50.0598739,52.2657201 C50.0598739,51.0599594 51.0394748,50.0791075 52.2436975,50.0791075 L52.2436975,50.0791075 L59.1071429,50.0791075 L59.1071429,46.9553753 L52.2436975,46.9553753 C51.0394748,46.9553753 50.0598739,45.9745233 50.0598739,44.7687627 L50.0598739,44.7687627 L50.0598739,37.8965517 Z" id="Combined-Shape-Copy" fill="#33CDED" fill-rule="nonzero"></path>
        <path d="M31.143375,43.9422917 C30.3180781,43.778125 29.5177656,44.3308333 29.3572969,45.178125 C29.12025,46.4297917 29,47.715625 29,49 C29,60.028125 37.7475781,69 48.5,69 C59.2524219,69 68,60.028125 68,49 C68,37.971875 59.2524219,29 48.5,29 C41.8984375,29 35.7927031,32.395625 32.1673281,38.0833333 C31.7068438,38.805625 31.9046875,39.77375 32.6087188,40.2460417 C33.3129531,40.7185417 34.2570781,40.515625 34.7173594,39.793125 C37.7780469,34.9916667 42.9303125,32.125 48.4997969,32.125 C57.5721719,32.125 64.9529219,39.6952083 64.9529219,49 C64.9529219,58.3047917 57.5721719,65.875 48.4997969,65.875 C39.4274219,65.875 32.0466719,58.3047917 32.0466719,49 C32.0466719,47.9152083 32.1480313,46.83 32.3481094,45.774375 C32.5085781,44.9270833 31.9690781,44.106875 31.143375,43.9422917 Z" id="Path-Copy-2" fill="#7AF038" fill-rule="nonzero"></path>
    </g>
</svg>